<?xml version="1.0" encoding="utf-8"?>
<!-- Generator: Adobe Illustrator 25.4.1, SVG Export Plug-In . SVG Version: 6.00 Build 0)  -->
<svg version="1.1" xmlns="http://www.w3.org/2000/svg" xmlns:xlink="http://www.w3.org/1999/xlink" x="0px" y="0px"
	 width="241.925px" height="53.839px" viewBox="0 0 241.925 53.839" enable-background="new 0 0 241.925 53.839"
	 xml:space="preserve">
<g id="CORS">
	<g>
		<rect x="14.3" y="42.503" fill="#CD151A" width="11.326" height="11.326"/>
		<rect x="28.458" y="42.503" fill="#CD151A" width="11.326" height="11.326"/>
		<rect x="0.143" y="28.345" fill="#CD151A" width="11.326" height="11.326"/>
		<rect x="0.143" y="14.188" fill="#CD151A" width="11.326" height="11.326"/>
		<rect x="14.3" y="0.03" fill="#CD151A" width="11.326" height="11.326"/>
		<rect x="28.458" y="0.03" fill="#CD151A" width="11.326" height="11.326"/>
		<rect x="42.615" y="28.345" fill="#CD151A" width="11.326" height="11.326"/>
		<rect x="42.615" y="14.188" fill="#CD151A" width="11.326" height="11.326"/>
	</g>
	<g>
		<path fill="#0c0c0c" d="M74.611,36.565c-2.491-2.567-3.736-5.785-3.736-9.654s1.245-7.087,3.736-9.654c2.49-2.567,5.664-3.851,9.521-3.851
			c4.338,0,7.666,1.618,9.984,4.855c1.056,1.436,1.802,3.042,2.238,4.818h-5.336c-0.299-0.828-0.758-1.582-1.378-2.264
			c-1.445-1.532-3.282-2.299-5.508-2.299c-2.25,0-4.104,0.785-5.561,2.354c-1.458,1.57-2.187,3.584-2.187,6.041
			c0,2.554,0.706,4.593,2.118,6.113c1.412,1.521,3.288,2.282,5.63,2.282c2.341,0,4.223-0.852,5.646-2.555
			c0.643-0.803,1.113-1.655,1.411-2.556h5.337c-0.528,1.923-1.32,3.627-2.376,5.111c-2.478,3.406-5.817,5.11-10.018,5.11
			C80.275,40.416,77.101,39.132,74.611,36.565"/>
		<path fill="#0c0c0c" d="M115.168,40.2c0.149-0.024,0.299-0.045,0.445-0.073c0.212-0.043,0.42-0.093,0.626-0.146
			c2.307-0.563,4.31-1.697,5.993-3.432c2.491-2.567,3.736-5.785,3.736-9.654c0-3.869-1.245-7.087-3.736-9.654
			c-0.654-0.674-1.358-1.254-2.106-1.751c-1.976-1.391-4.376-2.1-7.22-2.1c-0.033,0-0.065,0.004-0.098,0.004
			c-0.033,0-0.064-0.004-0.098-0.004c-0.3,0-0.585,0.028-0.876,0.046c-0.127,0.008-0.258,0.009-0.383,0.02
			c-0.342,0.03-0.674,0.08-1.003,0.134c-0.149,0.024-0.299,0.045-0.445,0.073c-0.212,0.043-0.419,0.093-0.626,0.146
			c-2.307,0.563-4.31,1.697-5.993,3.432c-2.491,2.567-3.736,5.785-3.736,9.654c0,3.869,1.245,7.087,3.736,9.654
			c0.654,0.674,1.357,1.254,2.105,1.751c1.976,1.391,4.377,2.1,7.221,2.1c0.033,0,0.065-0.004,0.098-0.004
			c0.033,0,0.064,0.004,0.098,0.004c0.3,0,0.585-0.028,0.876-0.046c0.127-0.008,0.258-0.009,0.383-0.02
			C114.506,40.305,114.838,40.254,115.168,40.2z M107.276,33.008c-1.412-1.52-2.118-3.559-2.118-6.113
			c0-2.457,0.729-4.471,2.187-6.041c1.436-1.547,3.26-2.328,5.467-2.35c2.294,0.022,4.138,0.779,5.529,2.278
			c1.412,1.52,2.118,3.559,2.118,6.113c0,2.457-0.729,4.471-2.187,6.041c-1.436,1.547-3.26,2.328-5.467,2.35
			C110.511,35.263,108.667,34.506,107.276,33.008z"/>
		<path fill="#0c0c0c" d="M130.492,39.686v-25.55h11.361c2.87,0,5.165,0.822,6.887,2.464c1.722,1.642,2.583,3.681,2.583,6.113
			c0,1.898-0.506,3.517-1.516,4.855c-1.009,1.338-2.34,2.335-3.994,2.993l5.51,9.125h-5.853l-4.994-8.395h-4.819v8.395H130.492
			 M135.657,26.181h6.024c1.423,0,2.497-0.31,3.22-0.93c0.723-0.621,1.085-1.466,1.085-2.538c0-1.07-0.362-1.916-1.085-2.536
			c-0.723-0.621-1.797-0.931-3.22-0.931h-6.024V26.181z"/>
		<path fill="#0c0c0c" d="M154.136,31.656h5.337c0.206,0.73,0.54,1.375,0.998,1.934c1.01,1.265,2.514,1.898,4.511,1.898
			c2.985,0,4.477-0.973,4.477-2.92c0-0.486-0.155-0.924-0.465-1.314c-0.31-0.389-0.792-0.73-1.446-1.022
			c-0.655-0.292-1.286-0.529-1.894-0.711c-0.608-0.183-1.394-0.408-2.359-0.676c-0.138-0.024-0.246-0.049-0.326-0.073
			c-0.081-0.024-0.185-0.055-0.311-0.091c-0.126-0.036-0.235-0.067-0.327-0.092c-4.775-1.215-7.162-3.661-7.162-7.336
			c0-2.19,0.844-4.044,2.531-5.565c1.688-1.521,3.942-2.282,6.766-2.282c3.672,0,6.45,1.314,8.333,3.942
			c0.78,1.168,1.331,2.47,1.653,3.905h-5.338c-0.138-0.51-0.401-0.997-0.792-1.46c-0.872-0.972-2.157-1.459-3.856-1.459
			c-1.309,0-2.296,0.261-2.961,0.784c-0.666,0.524-0.999,1.174-0.999,1.953c0,1.411,1.515,2.482,4.546,3.212
			c0.78,0.195,1.267,0.317,1.462,0.365c0.196,0.049,0.666,0.183,1.413,0.401c0.745,0.22,1.251,0.396,1.514,0.53
			c0.264,0.134,0.712,0.341,1.343,0.62c0.632,0.281,1.079,0.542,1.344,0.785c0.262,0.244,0.607,0.566,1.032,0.967
			c0.425,0.402,0.728,0.809,0.913,1.222c0.184,0.414,0.35,0.895,0.499,1.442c0.149,0.548,0.224,1.138,0.224,1.771
			c0,2.262-0.861,4.167-2.582,5.712c-1.722,1.546-4.132,2.318-7.232,2.318c-4.086,0-7.082-1.46-8.987-4.38
			C155.1,34.771,154.48,33.311,154.136,31.656"/>
	</g>
</g>
<g id="Logozusatz_CORS_Kopie">
	<g>
		<g>
			<rect x="205.101" y="48.166" fill="#9D9D9C" width="5.663" height="5.663"/>
			<rect x="219.269" y="48.166" fill="#9D9D9C" width="5.663" height="5.663"/>
			<rect x="212.185" y="48.166" fill="#9D9D9C" width="5.663" height="5.663"/>
			<rect x="233.433" y="48.166" fill="#9D9D9C" width="5.663" height="5.663"/>
			<rect x="226.354" y="48.166" fill="#9D9D9C" width="5.663" height="5.664"/>
		</g>
		<g>
			<path fill="#9D9D9C" d="M74.351,48.412c0.248,0.136,0.44,0.326,0.576,0.571c0.136,0.245,0.204,0.527,0.204,0.847
				c0,0.319-0.069,0.599-0.208,0.839c-0.139,0.24-0.335,0.426-0.587,0.559c-0.254,0.133-0.545,0.2-0.875,0.2h-1.399
				c-0.026,0-0.04,0.013-0.04,0.04v2.222c0,0.038-0.011,0.067-0.031,0.088c-0.021,0.021-0.051,0.032-0.089,0.032h-0.527
				c-0.038,0-0.067-0.011-0.088-0.032c-0.021-0.021-0.032-0.05-0.032-0.088v-5.362c0-0.038,0.011-0.067,0.032-0.088
				c0.02-0.021,0.05-0.032,0.088-0.032h2.118C73.817,48.208,74.103,48.276,74.351,48.412z M74.095,50.541
				c0.179-0.176,0.268-0.408,0.268-0.695c0-0.293-0.09-0.529-0.268-0.707c-0.179-0.179-0.415-0.268-0.707-0.268h-1.327
				c-0.026,0-0.04,0.013-0.04,0.04v1.854c0,0.026,0.014,0.04,0.04,0.04h1.327C73.681,50.805,73.917,50.717,74.095,50.541z"/>
			<path fill="#9D9D9C" d="M79.776,53.713l-0.28-0.895c-0.011-0.021-0.023-0.032-0.04-0.032h-2.229c-0.017,0-0.029,0.011-0.04,0.032
				l-0.28,0.895c-0.021,0.064-0.066,0.096-0.136,0.096h-0.568c-0.091,0-0.122-0.045-0.096-0.136l1.726-5.362
				c0.021-0.064,0.067-0.096,0.137-0.096h0.735c0.069,0,0.115,0.032,0.137,0.096l1.741,5.362c0.006,0.011,0.009,0.027,0.009,0.048
				c0,0.059-0.035,0.088-0.104,0.088h-0.576C79.842,53.809,79.797,53.777,79.776,53.713z M77.427,52.179h1.83
				c0.031,0,0.042-0.016,0.031-0.048l-0.927-2.981c-0.005-0.021-0.014-0.032-0.023-0.032c-0.011,0-0.02,0.011-0.024,0.032
				l-0.919,2.981C77.389,52.163,77.399,52.179,77.427,52.179z"/>
			<path fill="#9D9D9C" d="M85.365,53.722l-1.103-2.366c-0.011-0.021-0.026-0.032-0.048-0.032h-1.127c-0.027,0-0.04,0.013-0.04,0.04
				v2.326c0,0.038-0.011,0.067-0.032,0.088c-0.021,0.021-0.051,0.032-0.088,0.032H82.4c-0.037,0-0.066-0.011-0.088-0.032
				c-0.021-0.021-0.032-0.05-0.032-0.088v-5.362c0-0.038,0.011-0.067,0.032-0.088c0.021-0.021,0.051-0.032,0.088-0.032h2.11
				c0.32,0,0.601,0.067,0.843,0.199c0.243,0.134,0.43,0.32,0.564,0.559c0.133,0.24,0.2,0.517,0.2,0.831
				c0,0.368-0.099,0.681-0.296,0.939c-0.198,0.258-0.464,0.433-0.8,0.524c-0.021,0.011-0.029,0.026-0.023,0.048l1.134,2.357
				l0.016,0.064c0,0.053-0.034,0.08-0.103,0.08h-0.543C85.436,53.809,85.391,53.78,85.365,53.722z M83.047,48.911v1.774
				c0,0.027,0.013,0.04,0.04,0.04h1.327c0.277,0,0.501-0.085,0.675-0.256c0.173-0.17,0.259-0.391,0.259-0.663
				c0-0.282-0.085-0.509-0.256-0.679c-0.171-0.17-0.397-0.256-0.679-0.256h-1.327C83.06,48.871,83.047,48.884,83.047,48.911z"/>
			<path fill="#9D9D9C" d="M91.552,48.248c0.02,0.021,0.031,0.051,0.031,0.088v0.432c0,0.037-0.011,0.066-0.031,0.088
				c-0.021,0.021-0.051,0.032-0.089,0.032h-1.486c-0.027,0-0.04,0.014-0.04,0.04v4.763c0,0.038-0.011,0.067-0.032,0.088
				c-0.021,0.021-0.051,0.032-0.088,0.032H89.29c-0.037,0-0.066-0.011-0.088-0.032c-0.021-0.021-0.032-0.05-0.032-0.088v-4.763
				c0-0.026-0.013-0.04-0.04-0.04h-1.414c-0.037,0-0.066-0.01-0.088-0.032c-0.021-0.021-0.031-0.051-0.031-0.088v-0.432
				c0-0.037,0.01-0.066,0.031-0.088c0.021-0.021,0.051-0.032,0.088-0.032h3.748C91.502,48.216,91.531,48.226,91.552,48.248z"/>
			<path fill="#9D9D9C" d="M96.043,53.642c-0.298-0.16-0.531-0.385-0.696-0.676c-0.166-0.29-0.248-0.624-0.248-1.003v-1.902
				c0-0.378,0.082-0.711,0.248-0.999c0.165-0.288,0.397-0.512,0.696-0.671c0.298-0.16,0.642-0.24,1.03-0.24
				c0.394,0,0.74,0.08,1.039,0.24c0.298,0.159,0.531,0.383,0.696,0.671c0.165,0.288,0.248,0.62,0.248,0.999v1.902
				c0,0.378-0.083,0.713-0.248,1.003c-0.165,0.291-0.397,0.516-0.696,0.676c-0.299,0.16-0.645,0.239-1.039,0.239
				C96.685,53.881,96.341,53.802,96.043,53.642z M97.952,52.882c0.224-0.223,0.336-0.519,0.336-0.887v-1.942
				c0-0.373-0.111-0.673-0.336-0.899c-0.223-0.226-0.516-0.339-0.879-0.339c-0.362,0-0.654,0.113-0.875,0.339
				c-0.22,0.227-0.332,0.526-0.332,0.899v1.942c0,0.367,0.111,0.663,0.332,0.887c0.221,0.224,0.513,0.336,0.875,0.336
				C97.436,53.218,97.729,53.106,97.952,52.882z"/>
			<path fill="#9D9D9C" d="M104.594,48.847c-0.021,0.021-0.051,0.032-0.088,0.032h-2.781c-0.026,0-0.04,0.013-0.04,0.04v1.702
				c0,0.027,0.014,0.04,0.04,0.04h1.894c0.037,0,0.066,0.011,0.088,0.032c0.021,0.021,0.032,0.051,0.032,0.088v0.424
				c0,0.037-0.011,0.067-0.032,0.088c-0.021,0.021-0.051,0.032-0.088,0.032h-1.894c-0.026,0-0.04,0.013-0.04,0.04v2.326
				c0,0.038-0.011,0.067-0.031,0.088c-0.021,0.021-0.051,0.032-0.088,0.032h-0.528c-0.037,0-0.066-0.011-0.088-0.032
				c-0.021-0.021-0.032-0.05-0.032-0.088v-5.354c0-0.037,0.011-0.066,0.032-0.088s0.051-0.032,0.088-0.032h3.468
				c0.037,0,0.066,0.011,0.088,0.032s0.032,0.051,0.032,0.088v0.423C104.627,48.796,104.616,48.826,104.594,48.847z"/>
			<path fill="#9D9D9C" d="M111.755,48.248c0.02,0.021,0.031,0.051,0.031,0.088v0.432c0,0.037-0.011,0.066-0.031,0.088
				c-0.021,0.021-0.051,0.032-0.089,0.032h-1.486c-0.027,0-0.04,0.014-0.04,0.04v4.763c0,0.038-0.011,0.067-0.032,0.088
				c-0.021,0.021-0.051,0.032-0.088,0.032h-0.528c-0.037,0-0.066-0.011-0.088-0.032c-0.021-0.021-0.032-0.05-0.032-0.088v-4.763
				c0-0.026-0.013-0.04-0.04-0.04h-1.414c-0.037,0-0.066-0.01-0.088-0.032c-0.021-0.021-0.031-0.051-0.031-0.088v-0.432
				c0-0.037,0.01-0.066,0.031-0.088s0.051-0.032,0.088-0.032h3.748C111.705,48.216,111.734,48.226,111.755,48.248z"/>
			<path fill="#9D9D9C" d="M116.629,48.248c0.021-0.021,0.051-0.032,0.089-0.032h0.527c0.037,0,0.066,0.011,0.088,0.032
				s0.032,0.051,0.032,0.088v5.354c0,0.038-0.011,0.067-0.032,0.088c-0.021,0.021-0.051,0.032-0.088,0.032h-0.527
				c-0.038,0-0.067-0.011-0.089-0.032c-0.02-0.021-0.031-0.05-0.031-0.088v-2.326c0-0.026-0.014-0.04-0.04-0.04h-2.262
				c-0.026,0-0.04,0.013-0.04,0.04v2.326c0,0.038-0.011,0.067-0.031,0.088c-0.021,0.021-0.051,0.032-0.088,0.032h-0.528
				c-0.037,0-0.066-0.011-0.088-0.032c-0.021-0.021-0.032-0.05-0.032-0.088v-5.354c0-0.037,0.011-0.066,0.032-0.088
				s0.051-0.032,0.088-0.032h0.528c0.037,0,0.066,0.011,0.088,0.032c0.02,0.021,0.031,0.051,0.031,0.088v2.286
				c0,0.027,0.014,0.04,0.04,0.04h2.262c0.026,0,0.04-0.013,0.04-0.04v-2.286C116.598,48.299,116.608,48.269,116.629,48.248z"/>
			<path fill="#9D9D9C" d="M123.012,48.847c-0.021,0.021-0.051,0.032-0.088,0.032h-2.789c-0.027,0-0.04,0.013-0.04,0.04v1.702
				c0,0.027,0.013,0.04,0.04,0.04h1.902c0.037,0,0.066,0.011,0.088,0.032c0.02,0.021,0.031,0.051,0.031,0.088v0.424
				c0,0.037-0.011,0.067-0.031,0.088c-0.021,0.021-0.051,0.032-0.088,0.032h-1.902c-0.027,0-0.04,0.013-0.04,0.04v1.742
				c0,0.027,0.013,0.04,0.04,0.04h2.789c0.037,0,0.066,0.011,0.088,0.032c0.021,0.021,0.032,0.051,0.032,0.088v0.423
				c0,0.038-0.011,0.067-0.032,0.088c-0.021,0.021-0.051,0.032-0.088,0.032h-3.477c-0.037,0-0.066-0.011-0.088-0.032
				c-0.021-0.021-0.032-0.05-0.032-0.088v-5.354c0-0.037,0.011-0.066,0.032-0.088s0.051-0.032,0.088-0.032h3.477
				c0.037,0,0.066,0.011,0.088,0.032s0.032,0.051,0.032,0.088v0.423C123.044,48.796,123.034,48.826,123.012,48.847z"/>
			<path fill="#9D9D9C" d="M130.509,48.847c-0.021,0.021-0.051,0.032-0.089,0.032h-2.789c-0.026,0-0.04,0.013-0.04,0.04v1.702
				c0,0.027,0.014,0.04,0.04,0.04h1.902c0.037,0,0.066,0.011,0.088,0.032c0.021,0.021,0.032,0.051,0.032,0.088v0.424
				c0,0.037-0.011,0.067-0.032,0.088c-0.021,0.021-0.051,0.032-0.088,0.032h-1.902c-0.026,0-0.04,0.013-0.04,0.04v1.742
				c0,0.027,0.014,0.04,0.04,0.04h2.789c0.038,0,0.067,0.011,0.089,0.032c0.02,0.021,0.031,0.051,0.031,0.088v0.423
				c0,0.038-0.011,0.067-0.031,0.088c-0.021,0.021-0.051,0.032-0.089,0.032h-3.476c-0.037,0-0.066-0.011-0.088-0.032
				c-0.021-0.021-0.032-0.05-0.032-0.088v-5.354c0-0.037,0.011-0.066,0.032-0.088s0.051-0.032,0.088-0.032h3.476
				c0.038,0,0.067,0.011,0.089,0.032c0.02,0.021,0.031,0.051,0.031,0.088v0.423C130.54,48.796,130.529,48.826,130.509,48.847z"/>
			<path fill="#9D9D9C" d="M131.722,51.668c-0.021-0.021-0.032-0.051-0.032-0.088v-0.423c0-0.038,0.011-0.067,0.032-0.088
				c0.021-0.021,0.051-0.032,0.088-0.032h2.39c0.037,0,0.066,0.011,0.088,0.032c0.021,0.021,0.032,0.051,0.032,0.088v0.423
				c0,0.037-0.011,0.067-0.032,0.088c-0.021,0.021-0.051,0.032-0.088,0.032h-2.39C131.773,51.7,131.744,51.689,131.722,51.668z"/>
			<path fill="#9D9D9C" d="M136.872,53.654c-0.296-0.152-0.525-0.368-0.688-0.648c-0.162-0.279-0.244-0.6-0.244-0.963v-2.069
				c0-0.362,0.082-0.681,0.244-0.955c0.163-0.275,0.392-0.488,0.688-0.639c0.296-0.152,0.635-0.228,1.018-0.228
				s0.722,0.073,1.015,0.22c0.293,0.146,0.52,0.353,0.683,0.619c0.163,0.267,0.244,0.576,0.244,0.927c0,0.053-0.04,0.085-0.12,0.096
				l-0.528,0.032h-0.031c-0.027,0-0.049-0.005-0.064-0.016c-0.016-0.01-0.024-0.021-0.024-0.032V49.95
				c0-0.341-0.106-0.616-0.319-0.823c-0.214-0.208-0.498-0.312-0.855-0.312s-0.643,0.104-0.858,0.312
				c-0.217,0.208-0.324,0.482-0.324,0.823v2.126c0,0.341,0.107,0.615,0.324,0.823c0.216,0.208,0.501,0.312,0.858,0.312
				s0.642-0.104,0.855-0.312c0.213-0.208,0.319-0.482,0.319-0.823c0-0.032,0.011-0.056,0.032-0.072
				c0.021-0.016,0.051-0.021,0.088-0.016l0.528,0.032c0.08,0.011,0.12,0.024,0.12,0.04v0.04c0,0.352-0.081,0.662-0.244,0.931
				c-0.163,0.269-0.39,0.478-0.683,0.627c-0.294,0.149-0.632,0.223-1.015,0.223S137.167,53.806,136.872,53.654z"/>
			<path fill="#9D9D9C" d="M142.481,53.642c-0.298-0.16-0.53-0.385-0.696-0.676c-0.165-0.29-0.248-0.624-0.248-1.003v-1.902
				c0-0.378,0.083-0.711,0.248-0.999c0.166-0.288,0.397-0.512,0.696-0.671c0.298-0.16,0.642-0.24,1.031-0.24
				c0.394,0,0.74,0.08,1.039,0.24c0.298,0.159,0.53,0.383,0.695,0.671c0.166,0.288,0.248,0.62,0.248,0.999v1.902
				c0,0.378-0.082,0.713-0.248,1.003c-0.165,0.291-0.396,0.516-0.695,0.676s-0.645,0.239-1.039,0.239
				C143.123,53.881,142.779,53.802,142.481,53.642z M144.391,52.882c0.223-0.223,0.336-0.519,0.336-0.887v-1.942
				c0-0.373-0.112-0.673-0.336-0.899c-0.223-0.226-0.517-0.339-0.879-0.339c-0.363,0-0.655,0.113-0.875,0.339
				c-0.221,0.227-0.332,0.526-0.332,0.899v1.942c0,0.367,0.11,0.663,0.332,0.887c0.22,0.224,0.512,0.336,0.875,0.336
				C143.874,53.218,144.167,53.106,144.391,52.882z"/>
			<path fill="#9D9D9C" d="M147.389,53.777c-0.021-0.021-0.032-0.05-0.032-0.088v-5.354c0-0.037,0.011-0.066,0.032-0.088
				s0.051-0.032,0.088-0.032h0.511c0.064,0,0.112,0.027,0.144,0.08l2.445,3.956c0.011,0.016,0.021,0.023,0.032,0.02
				c0.011-0.002,0.017-0.015,0.017-0.036v-3.899c0-0.037,0.01-0.066,0.031-0.088c0.021-0.021,0.051-0.032,0.088-0.032h0.528
				c0.037,0,0.066,0.011,0.088,0.032c0.021,0.021,0.032,0.051,0.032,0.088v5.354c0,0.038-0.011,0.067-0.032,0.088
				c-0.021,0.021-0.051,0.032-0.088,0.032h-0.519c-0.064,0-0.112-0.027-0.144-0.08l-2.446-3.979
				c-0.011-0.016-0.021-0.022-0.031-0.02c-0.011,0.003-0.017,0.015-0.017,0.036l0.008,3.923c0,0.038-0.011,0.067-0.031,0.088
				c-0.021,0.021-0.051,0.032-0.088,0.032h-0.528C147.44,53.809,147.411,53.799,147.389,53.777z"/>
			<path fill="#9D9D9C" d="M154.19,53.642c-0.298-0.16-0.53-0.385-0.696-0.676c-0.165-0.29-0.248-0.624-0.248-1.003v-1.902
				c0-0.378,0.083-0.711,0.248-0.999c0.166-0.288,0.397-0.512,0.696-0.671c0.298-0.16,0.642-0.24,1.031-0.24
				c0.394,0,0.74,0.08,1.039,0.24c0.299,0.159,0.53,0.383,0.695,0.671c0.166,0.288,0.248,0.62,0.248,0.999v1.902
				c0,0.378-0.082,0.713-0.248,1.003c-0.165,0.291-0.396,0.516-0.695,0.676c-0.298,0.16-0.645,0.239-1.039,0.239
				C154.832,53.881,154.489,53.802,154.19,53.642z M156.1,52.882c0.223-0.223,0.336-0.519,0.336-0.887v-1.942
				c0-0.373-0.112-0.673-0.336-0.899c-0.223-0.226-0.517-0.339-0.879-0.339c-0.363,0-0.655,0.113-0.875,0.339
				c-0.221,0.227-0.332,0.526-0.332,0.899v1.942c0,0.367,0.11,0.663,0.332,0.887c0.22,0.224,0.512,0.336,0.875,0.336
				C155.583,53.218,155.877,53.106,156.1,52.882z"/>
			<path fill="#9D9D9C" d="M159.102,53.777c-0.02-0.021-0.031-0.05-0.031-0.088v-5.354c0-0.037,0.011-0.066,0.031-0.088
				c0.021-0.021,0.051-0.032,0.089-0.032h0.535c0.064,0,0.112,0.027,0.144,0.08l1.342,2.142c0.017,0.032,0.032,0.032,0.048,0
				l1.351-2.142c0.032-0.053,0.08-0.08,0.143-0.08h0.536c0.037,0,0.066,0.011,0.088,0.032c0.021,0.021,0.032,0.051,0.032,0.088
				v5.354c0,0.038-0.011,0.067-0.032,0.088c-0.021,0.021-0.051,0.032-0.088,0.032h-0.528c-0.037,0-0.066-0.011-0.088-0.032
				c-0.021-0.021-0.031-0.05-0.031-0.088V49.63c0-0.021-0.006-0.033-0.017-0.036c-0.011-0.002-0.021,0.004-0.032,0.02l-1.087,1.774
				c-0.032,0.053-0.08,0.08-0.143,0.08h-0.256c-0.064,0-0.112-0.026-0.144-0.08l-1.079-1.774c-0.011-0.016-0.021-0.022-0.031-0.02
				c-0.012,0.003-0.017,0.015-0.017,0.036v4.059c0,0.038-0.011,0.067-0.032,0.088c-0.021,0.021-0.051,0.032-0.088,0.032h-0.527
				C159.152,53.809,159.123,53.799,159.102,53.777z"/>
			<path fill="#9D9D9C" d="M165.423,53.777c-0.021-0.021-0.032-0.05-0.032-0.088v-5.354c0-0.037,0.011-0.066,0.032-0.088
				c0.021-0.021,0.051-0.032,0.088-0.032h0.528c0.037,0,0.066,0.011,0.088,0.032c0.02,0.021,0.031,0.051,0.031,0.088v5.354
				c0,0.038-0.011,0.067-0.031,0.088c-0.021,0.021-0.051,0.032-0.088,0.032h-0.528C165.474,53.809,165.444,53.799,165.423,53.777z"
				/>
			<path fill="#9D9D9C" d="M167.888,53.789c-0.019-0.013-0.028-0.031-0.028-0.052c0-0.027,0.009-0.051,0.024-0.072l1.614-2.629
				c0.011-0.016,0.011-0.032,0-0.048l-1.614-2.629c-0.016-0.026-0.024-0.051-0.024-0.072c0-0.021,0.01-0.039,0.028-0.052
				c0.019-0.013,0.044-0.02,0.076-0.02h0.576c0.063,0,0.111,0.027,0.143,0.08l1.271,2.086c0.016,0.032,0.031,0.032,0.048,0
				l1.27-2.086c0.032-0.053,0.08-0.08,0.144-0.08h0.567c0.032,0,0.058,0.007,0.076,0.02c0.019,0.014,0.028,0.031,0.028,0.052
				c0,0.021-0.008,0.045-0.024,0.072l-1.606,2.637c-0.006,0.016-0.006,0.032,0,0.048l1.606,2.621
				c0.017,0.021,0.024,0.045,0.024,0.072c0,0.021-0.01,0.039-0.028,0.052c-0.019,0.013-0.044,0.02-0.076,0.02h-0.567
				c-0.064,0-0.112-0.027-0.144-0.08l-1.27-2.078c-0.017-0.032-0.032-0.032-0.048,0l-1.271,2.078c-0.032,0.053-0.08,0.08-0.143,0.08
				h-0.576C167.932,53.809,167.906,53.803,167.888,53.789z"/>
			<path fill="#9D9D9C" d="M176.542,53.646c-0.296-0.152-0.525-0.368-0.687-0.647c-0.163-0.279-0.244-0.6-0.244-0.963v-2.046
				c0-0.367,0.081-0.69,0.244-0.967c0.162-0.277,0.391-0.492,0.687-0.643c0.296-0.152,0.635-0.228,1.019-0.228
				c0.383,0,0.722,0.075,1.014,0.224c0.293,0.149,0.521,0.356,0.683,0.619c0.163,0.263,0.244,0.56,0.244,0.891v0.048
				c0,0.037-0.011,0.066-0.031,0.088c-0.021,0.021-0.051,0.032-0.089,0.032h-0.527c-0.037,0-0.067-0.008-0.088-0.024
				c-0.021-0.016-0.032-0.035-0.032-0.056v-0.072c0-0.319-0.108-0.579-0.324-0.779c-0.216-0.2-0.499-0.3-0.851-0.3
				c-0.357,0-0.644,0.104-0.859,0.312s-0.324,0.485-0.324,0.831v2.094c0,0.346,0.112,0.623,0.336,0.831
				c0.224,0.208,0.517,0.312,0.879,0.312c0.352,0,0.63-0.092,0.836-0.276c0.205-0.184,0.307-0.436,0.307-0.756v-0.607
				c0-0.026-0.014-0.04-0.04-0.04h-1.031c-0.037,0-0.066-0.011-0.088-0.032c-0.021-0.021-0.032-0.051-0.032-0.088v-0.416
				c0-0.037,0.011-0.066,0.032-0.088c0.021-0.021,0.051-0.032,0.088-0.032h1.718c0.038,0,0.067,0.011,0.089,0.032
				c0.02,0.021,0.031,0.051,0.031,0.088v0.975c0,0.613-0.175,1.084-0.523,1.414c-0.349,0.331-0.822,0.496-1.418,0.496
				C177.177,53.873,176.838,53.797,176.542,53.646z"/>
			<path fill="#9D9D9C" d="M184.401,53.722l-1.103-2.366c-0.011-0.021-0.026-0.032-0.048-0.032h-1.127
				c-0.027,0-0.04,0.013-0.04,0.04v2.326c0,0.038-0.011,0.067-0.032,0.088c-0.021,0.021-0.051,0.032-0.088,0.032h-0.528
				c-0.037,0-0.066-0.011-0.088-0.032c-0.021-0.021-0.032-0.05-0.032-0.088v-5.362c0-0.038,0.011-0.067,0.032-0.088
				c0.021-0.021,0.051-0.032,0.088-0.032h2.11c0.32,0,0.601,0.067,0.843,0.199c0.243,0.134,0.43,0.32,0.564,0.559
				c0.133,0.24,0.2,0.517,0.2,0.831c0,0.368-0.099,0.681-0.296,0.939c-0.198,0.258-0.464,0.433-0.8,0.524
				c-0.021,0.011-0.029,0.026-0.023,0.048l1.134,2.357l0.016,0.064c0,0.053-0.034,0.08-0.103,0.08h-0.543
				C184.472,53.809,184.427,53.78,184.401,53.722z M182.083,48.911v1.774c0,0.027,0.013,0.04,0.04,0.04h1.327
				c0.277,0,0.501-0.085,0.675-0.256c0.173-0.17,0.259-0.391,0.259-0.663c0-0.282-0.085-0.509-0.256-0.679
				c-0.171-0.17-0.397-0.256-0.679-0.256h-1.327C182.096,48.871,182.083,48.884,182.083,48.911z"/>
			<path fill="#9D9D9C" d="M187.778,53.642c-0.298-0.16-0.53-0.385-0.696-0.676c-0.165-0.29-0.248-0.624-0.248-1.003v-1.902
				c0-0.378,0.083-0.711,0.248-0.999c0.166-0.288,0.397-0.512,0.696-0.671c0.298-0.16,0.642-0.24,1.031-0.24
				c0.394,0,0.74,0.08,1.039,0.24c0.298,0.159,0.53,0.383,0.695,0.671c0.166,0.288,0.248,0.62,0.248,0.999v1.902
				c0,0.378-0.082,0.713-0.248,1.003c-0.165,0.291-0.396,0.516-0.695,0.676s-0.645,0.239-1.039,0.239
				C188.42,53.881,188.076,53.802,187.778,53.642z M189.688,52.882c0.223-0.223,0.336-0.519,0.336-0.887v-1.942
				c0-0.373-0.112-0.673-0.336-0.899c-0.223-0.226-0.517-0.339-0.879-0.339c-0.363,0-0.655,0.113-0.875,0.339
				c-0.221,0.227-0.332,0.526-0.332,0.899v1.942c0,0.367,0.11,0.663,0.332,0.887c0.22,0.224,0.512,0.336,0.875,0.336
				C189.171,53.218,189.464,53.106,189.688,52.882z"/>
			<path fill="#9D9D9C" d="M193.547,53.646c-0.296-0.152-0.526-0.368-0.691-0.647c-0.166-0.279-0.248-0.6-0.248-0.963v-3.7
				c0-0.037,0.011-0.066,0.031-0.088c0.021-0.021,0.051-0.032,0.089-0.032h0.527c0.037,0,0.066,0.011,0.088,0.032
				c0.021,0.021,0.032,0.051,0.032,0.088v3.716c0,0.346,0.11,0.626,0.332,0.839c0.221,0.213,0.51,0.319,0.867,0.319
				s0.645-0.106,0.863-0.319c0.218-0.213,0.327-0.493,0.327-0.839v-3.716c0-0.037,0.011-0.066,0.032-0.088
				c0.021-0.021,0.051-0.032,0.088-0.032h0.528c0.037,0,0.066,0.011,0.088,0.032s0.032,0.051,0.032,0.088v3.7
				c0,0.362-0.081,0.683-0.244,0.963c-0.163,0.279-0.391,0.496-0.687,0.647c-0.297,0.152-0.639,0.228-1.027,0.228
				C194.185,53.873,193.842,53.797,193.547,53.646z"/>
			<path fill="#9D9D9C" d="M201.541,48.412c0.248,0.136,0.44,0.326,0.576,0.571c0.136,0.245,0.204,0.527,0.204,0.847
				c0,0.319-0.069,0.599-0.208,0.839c-0.139,0.24-0.335,0.426-0.587,0.559c-0.254,0.133-0.545,0.2-0.875,0.2h-1.399
				c-0.026,0-0.04,0.013-0.04,0.04v2.222c0,0.038-0.011,0.067-0.031,0.088c-0.021,0.021-0.051,0.032-0.089,0.032h-0.527
				c-0.038,0-0.067-0.011-0.088-0.032c-0.021-0.021-0.032-0.05-0.032-0.088v-5.362c0-0.038,0.011-0.067,0.032-0.088
				c0.02-0.021,0.05-0.032,0.088-0.032h2.118C201.007,48.208,201.293,48.276,201.541,48.412z M201.285,50.541
				c0.179-0.176,0.268-0.408,0.268-0.695c0-0.293-0.09-0.529-0.268-0.707c-0.179-0.179-0.415-0.268-0.707-0.268h-1.327
				c-0.026,0-0.04,0.013-0.04,0.04v1.854c0,0.026,0.014,0.04,0.04,0.04h1.327C200.87,50.805,201.107,50.717,201.285,50.541z"/>
		</g>
	</g>
</g>
</svg>
